<svg width="24" height="24" viewBox="0 0 24 24" fill="none" xmlns="http://www.w3.org/2000/svg">
<path d="M12 0C15.1826 0 18.2348 1.04065 20.4853 2.89301C22.7357 4.74537 24 7.25772 24 9.87736C24 14.0512 20.4369 18.5998 13.4031 23.5719C13.012 23.8485 12.5133 24.0004 11.9977 24C11.4821 23.9996 10.9838 23.847 10.5932 23.5699L10.128 23.2376C3.40554 18.3952 0 13.958 0 9.87736C0 7.25772 1.26428 4.74537 3.51472 2.89301C5.76516 1.04065 8.8174 0 12 0ZM12 6.07837C10.7759 6.07837 9.60198 6.47862 8.73643 7.19107C7.87088 7.90352 7.38462 8.8698 7.38462 9.87736C7.38462 10.8849 7.87088 11.8512 8.73643 12.5636C9.60198 13.2761 10.7759 13.6763 12 13.6763C13.2241 13.6763 14.398 13.2761 15.2636 12.5636C16.1291 11.8512 16.6154 10.8849 16.6154 9.87736C16.6154 8.8698 16.1291 7.90352 15.2636 7.19107C14.398 6.47862 13.2241 6.07837 12 6.07837Z" fill="white"/>
</svg>
