<svg width="24" height="24" viewBox="0 0 24 24" fill="none" xmlns="http://www.w3.org/2000/svg">
<path d="M23.2941 0H0.705882C0.518671 0 0.339127 0.0972524 0.206748 0.270363C0.0743694 0.443473 0 0.678262 0 0.923077V21.8462C0 22.4174 0.173529 22.9652 0.482412 23.3692C0.791296 23.7731 1.21023 24 1.64706 24H22.3529C22.7898 24 23.2087 23.7731 23.5176 23.3692C23.8265 22.9652 24 22.4174 24 21.8462V0.923077C24 0.678262 23.9256 0.443473 23.7933 0.270363C23.6609 0.0972524 23.4813 0 23.2941 0ZM12 13.2092L2.52 1.84615H21.48L12 13.2092ZM8.90235 12L1.41176 20.9785V3.02154L8.90235 12ZM9.94706 13.2523L11.5294 15.1415C11.6595 15.2972 11.8295 15.3836 12.0059 15.3836C12.1822 15.3836 12.3522 15.2972 12.4824 15.1415L14.0588 13.2523L21.48 22.1538H2.52118L9.94706 13.2523ZM15.0976 12L22.5882 3.02154V20.9785L15.0976 12Z" fill="white"/>
</svg>
