<svg width="24" height="24" viewBox="0 0 24 24" fill="none" xmlns="http://www.w3.org/2000/svg">
<path d="M20.4 3.48755C19.2985 2.37799 17.9875 1.49833 16.5432 0.899638C15.0988 0.300951 13.55 -0.00482784 11.9865 5.76299e-05C5.433 5.76299e-05 0.099 5.33404 0.099 11.892C0.099 13.9875 0.648 16.0365 1.6875 17.8365L0 24L6.3045 22.3455C8.04744 23.2949 10.0003 23.793 11.985 23.7945H11.9895C18.543 23.7945 23.8815 18.4605 23.8815 11.9025C23.8855 10.3396 23.5797 8.79135 22.9819 7.34726C22.3841 5.90317 21.506 4.59184 20.3985 3.48905L20.4 3.48755ZM11.9895 21.7875C10.2182 21.7878 8.47949 21.3117 6.9555 20.409L6.594 20.193L2.853 21.1725L3.852 17.526L3.618 17.151C2.62464 15.5772 2.09969 13.7531 2.1045 11.892C2.10768 9.27017 3.15093 6.75667 5.00529 4.90315C6.85965 3.04964 9.37363 2.00754 11.9955 2.00555C14.634 2.00555 17.1195 3.03755 18.984 4.90205C19.9041 5.81882 20.6334 6.90884 21.1298 8.10913C21.6262 9.30941 21.8798 10.5962 21.876 11.895C21.8715 17.3505 17.4375 21.7875 11.9895 21.7875ZM17.409 14.382C17.1135 14.232 15.651 13.515 15.3795 13.416C15.108 13.317 14.91 13.266 14.709 13.566C14.5125 13.8615 13.941 14.532 13.767 14.733C13.593 14.9295 13.4205 14.958 13.125 14.808C12.8295 14.658 11.868 14.3445 10.734 13.332C9.852 12.5445 9.2535 11.5695 9.0795 11.274C8.9055 10.9785 9.06 10.815 9.2115 10.6695C9.348 10.5375 9.507 10.323 9.657 10.149C9.807 9.97503 9.8535 9.85353 9.9525 9.65253C10.0515 9.45604 10.0035 9.28204 9.9285 9.13204C9.8535 8.98204 9.258 7.51954 9.015 6.92404C8.7765 6.34204 8.5275 6.42304 8.3445 6.41254C8.1705 6.40354 7.974 6.40354 7.7775 6.40354C7.581 6.40354 7.257 6.47854 6.9855 6.77404C6.714 7.06954 5.9445 7.79104 5.9445 9.25354C5.9445 10.716 7.008 12.1275 7.158 12.3285C7.308 12.525 9.2535 15.5295 12.234 16.815C12.942 17.1195 13.4955 17.3025 13.926 17.4435C14.6385 17.6685 15.285 17.6355 15.7965 17.5605C16.368 17.4765 17.5545 16.8435 17.8035 16.149C18.0525 15.4545 18.0525 14.8605 17.9775 14.7375C17.907 14.6055 17.7105 14.532 17.4105 14.3805L17.409 14.382Z" fill="white"/>
</svg>
