<svg width="24" height="23" viewBox="0 0 24 23" fill="none" xmlns="http://www.w3.org/2000/svg">
<path d="M14 15.0712H19V19.7214M10 7.63073H5V2.98047M19.4176 8.56395C18.8569 7.27328 17.9181 6.15477 16.708 5.33557C15.4979 4.51637 14.0652 4.02912 12.5723 3.92959C11.0794 3.83007 9.58606 4.12202 8.2627 4.77232C6.93933 5.42262 5.83882 6.40542 5.08594 7.60853M4.58203 14.1384C5.14272 15.4291 6.08146 16.5476 7.29157 17.3668C8.50169 18.186 9.93588 18.6726 11.4288 18.7721C12.9217 18.8716 14.4138 18.5797 15.7371 17.9294C17.0605 17.2791 18.1603 16.2965 18.9131 15.0934" stroke="#AF7B13" stroke-width="1.61786" stroke-linecap="round" stroke-linejoin="round"/>
</svg>
