<svg width="14" height="14" viewBox="0 0 14 14" fill="none" xmlns="http://www.w3.org/2000/svg">
<path d="M7.04886 13.1985L7.04154 13.1999L6.99433 13.2239L6.98103 13.2266L6.97172 13.2239L6.92451 13.1999C6.91786 13.1972 6.91188 13.1992 6.90855 13.2033L6.90589 13.2102L6.89459 13.5033L6.89791 13.517L6.90456 13.5259L6.97372 13.5766L6.98369 13.5793L6.99167 13.5766L7.06082 13.5259L7.0688 13.5149L7.07146 13.5033L7.06016 13.2109C7.05883 13.204 7.05418 13.1992 7.04886 13.1985ZM7.22507 13.1211L7.21642 13.1225L7.09341 13.1862L7.08676 13.193L7.08476 13.2006L7.09673 13.4951L7.10006 13.5033L7.10538 13.5081L7.23903 13.5718C7.24701 13.5745 7.25432 13.5718 7.25831 13.5663L7.26097 13.5567L7.23836 13.1362C7.23637 13.128 7.23172 13.1225 7.22507 13.1211ZM6.74963 13.1225C6.74661 13.1211 6.74322 13.1207 6.73999 13.1215C6.73675 13.1222 6.73383 13.124 6.73168 13.1266L6.72769 13.1362L6.70508 13.5567C6.70508 13.5649 6.70973 13.5704 6.71638 13.5732L6.72636 13.5718L6.86001 13.5081L6.86666 13.5026L6.86932 13.4951L6.88062 13.2006L6.87863 13.1924L6.87198 13.1855L6.74963 13.1225Z" fill="#686868"/>
<path d="M11.3122 0C11.8417 0 12.3494 0.216628 12.7238 0.602227C13.0982 0.987827 13.3085 1.51081 13.3085 2.05613V8.90991C13.3085 9.45523 13.0982 9.97821 12.7238 10.3638C12.3494 10.7494 11.8417 10.966 11.3122 10.966H1.99628C1.46683 10.966 0.959071 10.7494 0.584696 10.3638C0.210322 9.97821 0 9.45523 0 8.90991V2.05613C0 1.51081 0.210322 0.987827 0.584696 0.602227C0.959071 0.216628 1.46683 0 1.99628 0H11.3122ZM11.9777 4.11227H1.33085V8.90991C1.33087 9.07778 1.39071 9.23981 1.49901 9.36525C1.60732 9.4907 1.75656 9.57085 1.91842 9.59049L1.99628 9.59529H11.3122C11.4752 9.59526 11.6325 9.53363 11.7543 9.42208C11.8761 9.31053 11.9539 9.15682 11.973 8.9901L11.9777 8.90991V4.11227ZM9.98138 6.1684C10.151 6.16859 10.3141 6.23548 10.4374 6.3554C10.5608 6.47532 10.635 6.63922 10.6449 6.81361C10.6549 6.988 10.5998 7.15971 10.4909 7.29367C10.3821 7.42763 10.2277 7.51372 10.0592 7.53436L9.98138 7.53915H7.98511C7.8155 7.53896 7.65237 7.47207 7.52905 7.35215C7.40572 7.23223 7.3315 7.06833 7.32156 6.89394C7.31162 6.71955 7.36671 6.54784 7.47557 6.41388C7.58442 6.27992 7.73884 6.19383 7.90725 6.1732L7.98511 6.1684H9.98138ZM11.3122 1.37076H1.99628C1.81979 1.37076 1.65054 1.44296 1.52575 1.5715C1.40096 1.70003 1.33085 1.87436 1.33085 2.05613V2.74151H11.9777V2.05613C11.9777 1.87436 11.9076 1.70003 11.7828 1.5715C11.658 1.44296 11.4887 1.37076 11.3122 1.37076Z" fill="#686868"/>
</svg>
