<svg width="24" height="24" viewBox="0 0 24 24" fill="none" xmlns="http://www.w3.org/2000/svg">
<path d="M0.261719 0.642578H23.3406V23.7214H0.261719V0.642578ZM11.8011 6.41229C12.8213 6.41229 13.7997 7.02017 14.521 8.1022C15.2424 9.18423 15.6476 10.6518 15.6476 12.182C15.6476 13.7122 15.2424 15.1798 14.521 16.2618C13.7997 17.3438 12.8213 17.9517 11.8011 17.9517C10.781 17.9517 9.80262 17.3438 9.08127 16.2618C8.35992 15.1798 7.95466 13.7122 7.95466 12.182C7.95466 10.6518 8.35992 9.18423 9.08127 8.1022C9.80262 7.02017 10.781 6.41229 11.8011 6.41229ZM5.39035 4.48905C5.39035 5.5092 5.12018 6.48756 4.63928 7.20892C4.15838 7.93027 3.50613 8.33552 2.82603 8.33552V16.0285C3.50613 16.0285 4.15838 16.4337 4.63928 17.1551C5.12018 17.8764 5.39035 18.8548 5.39035 19.8749H18.2119C18.2119 18.8548 18.4821 17.8764 18.963 17.1551C19.4439 16.4337 20.0961 16.0285 20.7762 16.0285V8.33552C20.0961 8.33552 19.4439 7.93027 18.963 7.20892C18.4821 6.48756 18.2119 5.5092 18.2119 4.48905H5.39035Z" fill="#C70000"/>
</svg>
