<svg width="25" height="25" viewBox="0 0 25 25" fill="none" xmlns="http://www.w3.org/2000/svg">
<path d="M4.41895 8.21023V17.2407C4.41895 18.3901 4.41895 18.9645 4.64264 19.4035C4.83941 19.7897 5.15316 20.1043 5.53934 20.301C5.97794 20.5245 6.55239 20.5245 7.69958 20.5245H17.5574C18.7045 20.5245 19.2782 20.5245 19.7168 20.301C20.103 20.1043 20.4177 19.7897 20.6145 19.4035C20.838 18.9649 20.838 18.3911 20.838 17.2439V8.21023M4.41895 8.21023H20.838M4.41895 8.21023L5.81988 5.75855C6.16368 5.1569 6.33554 4.85613 6.57728 4.6371C6.79134 4.44316 7.04454 4.29639 7.31914 4.20677C7.62949 4.10547 7.97596 4.10547 8.67002 4.10547H16.5866C17.2806 4.10547 17.6284 4.10547 17.9387 4.20677C18.2133 4.29639 18.4653 4.44316 18.6794 4.6371C18.9213 4.85631 19.0937 5.15739 19.438 5.76L20.838 8.21023M12.6285 11.2888V17.4459M12.6285 17.4459L15.707 15.3936M12.6285 17.4459L9.5499 15.3936" stroke="#C70000" stroke-width="2.46286" stroke-linecap="round" stroke-linejoin="round"/>
</svg>
