<svg width="78" height="42" viewBox="0 0 78 42" fill="none" xmlns="http://www.w3.org/2000/svg">
<circle cx="14.719" cy="20.8694" r="13.8362" fill="#C70000"/>
<path d="M11.9868 33.6758L3.96403 15.0799H8.61301L15.6263 31.5505H12.8901L20.0096 15.0799H24.2867L16.2373 33.6758H11.9868Z" fill="white"/>
<path d="M35.3739 28.6491C34.0604 28.6491 32.9092 28.3908 31.9204 27.8743C30.9463 27.343 30.1862 26.6198 29.6402 25.7048C29.1089 24.7897 28.8432 23.7492 28.8432 22.5833C28.8432 21.4026 29.1015 20.3621 29.618 19.4618C30.1493 18.5468 30.8725 17.831 31.7875 17.3145C32.7173 16.7979 33.7726 16.5396 34.9533 16.5396C36.1045 16.5396 37.1302 16.7905 38.0305 17.2923C38.9307 17.7941 39.6391 18.5025 40.1557 19.4176C40.6723 20.3326 40.9305 21.41 40.9305 22.6497C40.9305 22.7678 40.9232 22.9006 40.9084 23.0482C40.9084 23.1958 40.901 23.336 40.8863 23.4688H31.0349V21.6314H39.4251L38.3404 22.207C38.3551 21.5281 38.2149 20.9303 37.9198 20.4138C37.6246 19.8972 37.2187 19.4914 36.7022 19.1962C36.2004 18.901 35.6174 18.7534 34.9533 18.7534C34.2744 18.7534 33.6767 18.901 33.1601 19.1962C32.6583 19.4914 32.2598 19.9046 31.9647 20.4359C31.6842 20.9525 31.544 21.565 31.544 22.2734V22.7161C31.544 23.4245 31.7064 24.0518 32.0311 24.5979C32.3558 25.1439 32.8133 25.5645 33.4036 25.8597C33.994 26.1549 34.6729 26.3025 35.4403 26.3025C36.1045 26.3025 36.7022 26.1992 37.2335 25.9925C37.7648 25.7859 38.2371 25.4612 38.6503 25.0185L40.1336 26.7231C39.6023 27.343 38.9307 27.8226 38.119 28.1621C37.322 28.4868 36.407 28.6491 35.3739 28.6491ZM43.5886 28.4941V16.6725H46.2231V19.9267L45.9131 18.9748C46.2673 18.1778 46.8208 17.5727 47.5735 17.1595C48.3409 16.7463 49.2929 16.5396 50.4293 16.5396V19.1741C50.3112 19.1445 50.2005 19.1298 50.0972 19.1298C49.9939 19.115 49.8906 19.1076 49.7873 19.1076C48.7394 19.1076 47.9055 19.4176 47.2857 20.0374C46.6658 20.6425 46.3559 21.5502 46.3559 22.7604V28.4941H43.5886ZM56.3527 28.4941L51.2831 16.6725H54.1611L58.5223 27.0994H57.1054L61.6216 16.6725H64.2781L59.2085 28.4941H56.3527ZM71.24 28.6491C69.9265 28.6491 68.7753 28.3908 67.7865 27.8743C66.8124 27.343 66.0523 26.6198 65.5063 25.7048C64.975 24.7897 64.7093 23.7492 64.7093 22.5833C64.7093 21.4026 64.9676 20.3621 65.4841 19.4618C66.0154 18.5468 66.7386 17.831 67.6537 17.3145C68.5835 16.7979 69.6387 16.5396 70.8194 16.5396C71.9706 16.5396 72.9963 16.7905 73.8966 17.2923C74.7968 17.7941 75.5053 18.5025 76.0218 19.4176C76.5384 20.3326 76.7966 21.41 76.7966 22.6497C76.7966 22.7678 76.7893 22.9006 76.7745 23.0482C76.7745 23.1958 76.7671 23.336 76.7524 23.4688H66.901V21.6314H75.2913L74.2065 22.207C74.2213 21.5281 74.0811 20.9303 73.7859 20.4138C73.4907 19.8972 73.0848 19.4914 72.5683 19.1962C72.0665 18.901 71.4835 18.7534 70.8194 18.7534C70.1405 18.7534 69.5428 18.901 69.0262 19.1962C68.5244 19.4914 68.1259 19.9046 67.8308 20.4359C67.5503 20.9525 67.4101 21.565 67.4101 22.2734V22.7161C67.4101 23.4245 67.5725 24.0518 67.8972 24.5979C68.2219 25.1439 68.6794 25.5645 69.2697 25.8597C69.8601 26.1549 70.539 26.3025 71.3064 26.3025C71.9706 26.3025 72.5683 26.1992 73.0996 25.9925C73.6309 25.7859 74.1032 25.4612 74.5164 25.0185L75.9997 26.7231C75.4684 27.343 74.7968 27.8226 73.9851 28.1621C73.1882 28.4868 72.2731 28.6491 71.24 28.6491Z" fill="#0B0B33"/>
</svg>
