<svg width="39" height="39" viewBox="0 0 39 39" fill="none" xmlns="http://www.w3.org/2000/svg">
<path d="M7.34875 34.1954V32.2145C7.36038 32.0479 7.33634 31.8807 7.27825 31.7241C7.22016 31.5675 7.12935 31.4251 7.01188 31.3064C6.89441 31.1877 6.75298 31.0954 6.59702 31.0357C6.44106 30.9759 6.27416 30.9501 6.10744 30.96C5.88924 30.9458 5.67122 30.9903 5.47612 31.089C5.28101 31.1877 5.11595 31.337 4.99815 31.5212C4.89079 31.3425 4.73722 31.196 4.55362 31.0973C4.37002 30.9985 4.16318 30.9511 3.95489 30.96C3.77332 30.9508 3.59252 30.9893 3.43038 31.0715C3.26825 31.1538 3.1304 31.2769 3.03048 31.4288V31.0392H2.34375V34.1954H3.03705V32.4456C3.02206 32.3376 3.03117 32.2277 3.06372 32.1236C3.09628 32.0196 3.15146 31.9241 3.22532 31.8439C3.29918 31.7637 3.38988 31.7009 3.4909 31.66C3.59192 31.619 3.70077 31.6009 3.80961 31.607C4.2652 31.607 4.49634 31.9042 4.49634 32.439V34.1954H5.18964V32.4456C5.17577 32.3378 5.18567 32.2283 5.21864 32.1248C5.25161 32.0212 5.30684 31.9262 5.38047 31.8463C5.45409 31.7664 5.54432 31.7035 5.64482 31.6622C5.74531 31.6209 5.85364 31.602 5.96218 31.607C6.43096 31.607 6.65545 31.9042 6.65545 32.439V34.1954H7.34875ZM17.6097 31.0392H16.4872V30.0818H15.7939V31.0392H15.1534V31.6665H15.7939V33.1059C15.7939 33.8388 16.0778 34.2747 16.89 34.2747C17.1934 34.2756 17.4909 34.1909 17.7483 34.0303L17.5503 33.4426C17.3661 33.5525 17.1571 33.6139 16.9428 33.6209C16.5994 33.6209 16.4872 33.4096 16.4872 33.0927V31.6665H17.6097V31.0392ZM23.4665 30.96C23.299 30.955 23.1334 30.9954 22.987 31.0767C22.8405 31.1581 22.7188 31.2774 22.6345 31.4222V31.0392H21.9544V34.1954H22.6411V32.4258C22.6411 31.9042 22.8656 31.6137 23.3146 31.6137C23.4615 31.6116 23.6073 31.6386 23.7438 31.6929L23.9551 31.0458C23.7983 30.9897 23.633 30.9607 23.4665 30.96V30.96ZM14.612 31.2901C14.2233 31.059 13.7764 30.9444 13.3244 30.96C12.5254 30.96 12.0104 31.3429 12.0104 31.9702C12.0104 32.4853 12.3934 32.8022 13.0999 32.9012L13.4234 32.9474C13.7998 33.0002 13.9781 33.0993 13.9781 33.2776C13.9781 33.5219 13.7271 33.6606 13.2584 33.6606C12.8813 33.6714 12.5115 33.5551 12.2085 33.3304L11.885 33.8652C12.285 34.1446 12.7641 34.2881 13.2518 34.2747C14.163 34.2747 14.6912 33.8454 14.6912 33.2446C14.6912 32.6899 14.2752 32.3994 13.5885 32.3003L13.265 32.2541C12.9678 32.2145 12.7302 32.1551 12.7302 31.9438C12.7302 31.7127 12.9546 31.574 13.331 31.574C13.6766 31.5792 14.0152 31.6724 14.3148 31.8447L14.612 31.2901ZM33.0077 30.96C32.8402 30.955 32.6746 30.9954 32.5281 31.0767C32.3817 31.1581 32.26 31.2774 32.1757 31.4222V31.0392H31.4956V34.1954H32.1823V32.4258C32.1823 31.9042 32.4068 31.6137 32.8558 31.6137C33.0027 31.6116 33.1485 31.6386 33.285 31.6929L33.4963 31.0458C33.3395 30.9897 33.1742 30.9607 33.0077 30.96V30.96ZM24.1597 32.6172C24.1506 32.8396 24.1881 33.0614 24.2699 33.2684C24.3516 33.4753 24.4758 33.6629 24.6344 33.819C24.793 33.9751 24.9825 34.0963 25.1908 34.1748C25.399 34.2533 25.6214 34.2873 25.8435 34.2747C26.2558 34.2954 26.6609 34.1611 26.9792 33.8982L26.6491 33.3436C26.4117 33.5246 26.1222 33.6241 25.8237 33.6275C25.5664 33.6119 25.3247 33.4987 25.148 33.3109C24.9713 33.1232 24.8729 32.8751 24.8729 32.6173C24.8729 32.3595 24.9713 32.1114 25.148 31.9236C25.3247 31.7359 25.5664 31.6227 25.8237 31.607C26.1222 31.6104 26.4117 31.71 26.6491 31.891L26.9792 31.3363C26.6609 31.0735 26.2558 30.9393 25.8435 30.96C25.6214 30.9473 25.399 30.9813 25.1908 31.0598C24.9826 31.1383 24.793 31.2594 24.6344 31.4155C24.4758 31.5716 24.3517 31.7592 24.2699 31.9661C24.1882 32.1731 24.1506 32.3949 24.1597 32.6172V32.6172ZM30.591 32.6172V31.0392H29.9043V31.4222C29.7871 31.2711 29.6354 31.1503 29.4619 31.0699C29.2885 30.9895 29.0983 30.9518 28.9072 30.96C28.4817 30.9808 28.0806 31.1646 27.7868 31.4731C27.493 31.7816 27.3292 32.1913 27.3292 32.6173C27.3292 33.0433 27.493 33.453 27.7868 33.7616C28.0806 34.0701 28.4817 34.2538 28.9072 34.2747C29.0983 34.2828 29.2885 34.2451 29.4619 34.1647C29.6354 34.0842 29.7871 33.9634 29.9043 33.8124V34.1954H30.591V32.6172ZM28.0357 32.6172C28.0463 32.431 28.1112 32.2519 28.2224 32.1021C28.3336 31.9524 28.4862 31.8384 28.6614 31.7743C28.8366 31.7102 29.0268 31.6988 29.2084 31.7415C29.39 31.7841 29.5551 31.879 29.6834 32.0144C29.8118 32.1498 29.8977 32.3198 29.9305 32.5035C29.9634 32.6871 29.9418 32.8763 29.8684 33.0478C29.795 33.2193 29.673 33.3656 29.5175 33.4686C29.362 33.5716 29.1797 33.6269 28.9931 33.6275C28.8624 33.6293 28.7327 33.604 28.6122 33.5531C28.4917 33.5023 28.3831 33.427 28.2931 33.3321C28.2032 33.2372 28.1338 33.1247 28.0895 33.0016C28.0452 32.8786 28.0269 32.7477 28.0357 32.6172V32.6172ZM19.7491 30.96C19.3208 30.9825 18.918 31.17 18.625 31.4832C18.332 31.7963 18.1717 32.2108 18.1777 32.6395C18.1837 33.0683 18.3555 33.4781 18.6571 33.783C18.9586 34.0879 19.3666 34.2641 19.7953 34.2747C20.2664 34.2912 20.7271 34.1337 21.0894 33.8322L20.7527 33.3238C20.4919 33.5328 20.169 33.6489 19.8349 33.6539C19.608 33.673 19.3825 33.6031 19.2063 33.4589C19.0301 33.3147 18.9169 33.1075 18.8907 32.8813H21.2347C21.2413 32.7956 21.2479 32.7097 21.2479 32.6172C21.2413 31.6335 20.6338 30.96 19.7491 30.96V30.96ZM19.7358 31.574C19.9432 31.57 20.1438 31.6483 20.2936 31.7919C20.4433 31.9355 20.5301 32.1326 20.5348 32.34H18.8973C18.9093 32.1281 19.0038 31.9293 19.1605 31.7862C19.3172 31.643 19.5237 31.5669 19.7358 31.574V31.574ZM36.9628 32.6172V29.7715H36.2761V31.4222C36.1589 31.2711 36.0072 31.1503 35.8337 31.0699C35.6603 30.9895 35.4701 30.9518 35.2791 30.96C34.8536 30.9808 34.4524 31.1645 34.1586 31.4731C33.8648 31.7816 33.7009 32.1913 33.7009 32.6173C33.7009 33.0433 33.8648 33.453 34.1586 33.7616C34.4524 34.0701 34.8536 34.2538 35.2791 34.2747C35.4701 34.2828 35.6603 34.2451 35.8337 34.1647C36.0072 34.0842 36.1589 33.9634 36.2761 33.8124V34.1954H36.9628V32.6172ZM38.1075 33.738C38.1502 33.7377 38.1924 33.7461 38.2317 33.7626C38.2695 33.7784 38.304 33.8012 38.3332 33.8299C38.3623 33.8585 38.3855 33.8924 38.4016 33.9298C38.4181 33.9683 38.4266 34.0097 38.4266 34.0515C38.4266 34.0934 38.4181 34.1348 38.4016 34.1732C38.3854 34.2105 38.3622 34.2443 38.3332 34.2728C38.3039 34.3014 38.2695 34.3244 38.2317 34.3404C38.1925 34.3572 38.1502 34.3657 38.1075 34.3654C38.0447 34.3661 37.9831 34.3482 37.9304 34.314C37.8777 34.2798 37.8362 34.2308 37.8111 34.1732C37.7947 34.1348 37.7862 34.0934 37.7862 34.0515C37.7862 34.0097 37.7947 33.9683 37.8111 33.9298C37.8272 33.8925 37.8503 33.8585 37.8792 33.8299C37.9084 33.801 37.9431 33.7782 37.9811 33.7626C38.0212 33.746 38.0641 33.7377 38.1075 33.738V33.738ZM38.1075 34.2962C38.14 34.2965 38.1723 34.2899 38.2021 34.277C38.2308 34.2645 38.2569 34.2468 38.279 34.2247C38.3246 34.1787 38.3502 34.1165 38.3502 34.0517C38.3502 33.9869 38.3246 33.9247 38.279 33.8787C38.2569 33.8566 38.2308 33.839 38.2021 33.8268C38.1722 33.8141 38.14 33.8077 38.1075 33.808C38.0744 33.8077 38.0416 33.8141 38.011 33.8268C37.9819 33.8388 37.9554 33.8564 37.933 33.8787C37.8874 33.9247 37.8618 33.9869 37.8618 34.0517C37.8618 34.1165 37.8874 34.1787 37.933 34.2247C37.9554 34.247 37.9819 34.2647 38.011 34.277C38.0416 34.2899 38.0744 34.2964 38.1075 34.2962V34.2962ZM38.126 33.9048C38.1569 33.9028 38.1875 33.9117 38.2125 33.9298C38.2225 33.9381 38.2304 33.9485 38.2357 33.9603C38.241 33.9721 38.2434 33.985 38.2429 33.9979C38.2432 34.009 38.2412 34.02 38.2371 34.0302C38.2329 34.0405 38.2266 34.0497 38.2187 34.0574C38.1995 34.0744 38.1753 34.0845 38.1498 34.0863L38.2452 34.1962H38.1706L38.0822 34.087H38.0537V34.1962H37.9915V33.9048H38.126ZM38.0537 33.9595V34.0371H38.1252C38.139 34.0378 38.1526 34.0344 38.1645 34.0274C38.1693 34.0242 38.1732 34.0198 38.1757 34.0146C38.1783 34.0094 38.1794 34.0037 38.179 33.9979C38.1794 33.9922 38.1782 33.9866 38.1756 33.9815C38.1731 33.9764 38.1692 33.9721 38.1645 33.969C38.1526 33.9621 38.139 33.9588 38.1252 33.9595H38.0537ZM34.4075 32.6172C34.4182 32.431 34.4831 32.252 34.5943 32.1022C34.7055 31.9524 34.8581 31.8385 35.0333 31.7744C35.2085 31.7103 35.3986 31.6989 35.5802 31.7416C35.7618 31.7842 35.9269 31.8791 36.0552 32.0145C36.1836 32.1499 36.2694 32.3199 36.3023 32.5035C36.3352 32.6872 36.3135 32.8764 36.2401 33.0479C36.1667 33.2194 36.0448 33.3656 35.8892 33.4686C35.7337 33.5716 35.5514 33.6269 35.3649 33.6275C35.2341 33.6293 35.1044 33.6039 34.984 33.5531C34.8635 33.5022 34.7549 33.427 34.6649 33.3321C34.575 33.2371 34.5057 33.1246 34.4614 33.0016C34.4171 32.8786 34.3987 32.7477 34.4075 32.6172V32.6172ZM11.2181 32.6172V31.0392H10.5314V31.4222C10.4141 31.2711 10.2625 31.1503 10.089 31.0699C9.91554 30.9895 9.72533 30.9518 9.53431 30.96C9.10881 30.9808 8.70763 31.1646 8.41386 31.4731C8.12009 31.7816 7.95624 32.1913 7.95624 32.6173C7.95624 33.0433 8.12009 33.453 8.41386 33.7616C8.70763 34.0701 9.10881 34.2538 9.53431 34.2747C9.72534 34.2828 9.91554 34.2451 10.089 34.1647C10.2625 34.0842 10.4141 33.9634 10.5314 33.8124V34.1954H11.2181V32.6172ZM8.66277 32.6172C8.67344 32.431 8.73838 32.252 8.84959 32.1022C8.96079 31.9524 9.11339 31.8385 9.28858 31.7744C9.46377 31.7103 9.65389 31.6989 9.83548 31.7416C10.0171 31.7842 10.1822 31.8791 10.3105 32.0145C10.4388 32.1499 10.5247 32.3199 10.5576 32.5036C10.5904 32.6872 10.5688 32.8764 10.4954 33.0479C10.422 33.2194 10.3 33.3657 10.1445 33.4687C9.98897 33.5716 9.8067 33.6269 9.62016 33.6275C9.48941 33.6293 9.35971 33.6039 9.23924 33.5531C9.11877 33.5022 9.01014 33.427 8.92019 33.3321C8.83025 33.2371 8.76094 33.1246 8.71663 33.0016C8.67233 32.8786 8.65399 32.7477 8.66277 32.6172V32.6172Z" fill="#231F20"/>
<path d="M24.7858 6.98438H14.3848V25.6753H24.7858V6.98438Z" fill="#FF5F00"/>
<path d="M15.0441 16.3302C15.0424 14.5302 15.4504 12.7533 16.2369 11.1342C17.0235 9.51508 18.1681 8.09613 19.5842 6.98477C17.8306 5.60644 15.7246 4.74927 13.507 4.51125C11.2893 4.27322 9.04938 4.66394 7.04326 5.63875C5.03714 6.61356 3.34575 8.13312 2.16242 10.0238C0.979092 11.9144 0.351562 14.0998 0.351562 16.3302C0.351562 18.5606 0.979092 20.7461 2.16242 22.6367C3.34575 24.5273 5.03714 26.0469 7.04326 27.0217C9.04938 27.9965 11.2893 28.3872 13.507 28.1492C15.7246 27.9112 17.8306 27.054 19.5842 25.6757C18.1681 24.5643 17.0235 23.1454 16.2369 21.5263C15.4504 19.9071 15.0424 18.1303 15.0441 16.3302V16.3302Z" fill="#EB001B"/>
<path d="M38.816 16.3302C38.8161 18.5606 38.1886 20.746 37.0054 22.6367C35.8221 24.5273 34.1308 26.0469 32.1247 27.0217C30.1186 27.9965 27.8787 28.3872 25.6611 28.1492C23.4434 27.9112 21.3375 27.054 19.584 25.6757C20.9988 24.5632 22.1425 23.144 22.929 21.5252C23.7154 19.9063 24.124 18.13 24.124 16.3302C24.124 14.5304 23.7154 12.7542 22.929 11.1353C22.1425 9.51643 20.9988 8.09725 19.584 6.98477C21.3375 5.60643 23.4434 4.74927 25.6611 4.51125C27.8787 4.27322 30.1186 4.66395 32.1247 5.63877C34.1308 6.61359 35.8221 8.13315 37.0054 10.0238C38.1886 11.9144 38.8161 14.0998 38.816 16.3302V16.3302Z" fill="#F79E1B"/>
<path d="M37.682 23.6958V23.3131H37.8363V23.2351H37.4434V23.3131H37.5977V23.6958H37.682ZM38.4449 23.6958V23.2344H38.3245L38.1859 23.5517L38.0473 23.2344H37.9268V23.6958H38.0119V23.3477L38.1418 23.6478H38.23L38.3599 23.347V23.6958H38.4449Z" fill="#F79E1B"/>
</svg>
