<svg width="16" height="16" viewBox="0 0 16 16" fill="none" xmlns="http://www.w3.org/2000/svg">
<path d="M6.1403 4.3768C7.01608 3.61088 8.43509 3.61088 9.31087 4.3768C10.1859 5.14273 10.1859 6.38465 9.31087 7.15058C9.15964 7.28275 8.99123 7.39385 8.81021 7.48086C8.25277 7.75062 7.72521 8.22736 7.72521 8.84608V9.40651M14.4504 7.72521C14.4504 8.60838 14.2765 9.4829 13.9385 10.2988C13.6005 11.1148 13.1051 11.8562 12.4807 12.4807C11.8562 13.1051 11.1148 13.6005 10.2988 13.9385C9.4829 14.2765 8.60838 14.4504 7.72521 14.4504C6.84204 14.4504 5.96752 14.2765 5.15158 13.9385C4.33564 13.6005 3.59426 13.1051 2.96977 12.4807C2.34528 11.8562 1.8499 11.1148 1.51193 10.2988C1.17395 9.4829 1 8.60838 1 7.72521C1 5.94157 1.70855 4.23099 2.96977 2.96977C4.23099 1.70855 5.94157 1 7.72521 1C9.50885 1 11.2194 1.70855 12.4807 2.96977C13.7419 4.23099 14.4504 5.94157 14.4504 7.72521ZM7.72521 11.6483H7.73119V11.6542H7.72521V11.6483Z" stroke="#686868" stroke-width="1.12087" stroke-linecap="round" stroke-linejoin="round"/>
</svg>
