<svg width="56" height="44" viewBox="0 0 56 44" fill="none" xmlns="http://www.w3.org/2000/svg">
<rect x="0.68414" y="1.52398" width="54.0301" height="41.9009" rx="3.8593" fill="white" stroke="#F3F3F3" stroke-width="1.10266"/>
<path d="M24.612 30.4661H20.9414L23.2373 15.4141H26.9077L24.612 30.4661Z" fill="#15195A"/>
<path d="M37.917 15.7814C37.193 15.4769 36.0447 15.1406 34.6248 15.1406C31 15.1406 28.4474 17.1902 28.4317 20.1204C28.4016 22.2823 30.2593 23.483 31.6487 24.2039C33.0688 24.9405 33.5515 25.4213 33.5515 26.0778C33.5371 27.0862 32.404 27.551 31.3472 27.551C29.8817 27.551 29.0965 27.3114 27.9032 26.7504L27.4199 26.5099L26.9062 29.8887C27.7671 30.3046 29.3532 30.6736 31 30.6898C34.8514 30.6898 37.3588 28.672 37.3885 25.5494C37.4032 23.8359 36.4223 22.523 34.3075 21.4501C33.0236 20.7614 32.2374 20.297 32.2374 19.5923C32.2525 18.9517 32.9024 18.2956 34.3516 18.2956C35.5449 18.2634 36.4217 18.5676 37.0858 18.8719L37.4178 19.0318L37.917 15.7814Z" fill="#15195A"/>
<path fill-rule="evenodd" clip-rule="evenodd" d="M44.4879 15.416H47.3271L50.2883 30.4678H46.8897C46.8897 30.4678 46.5571 28.7384 46.4517 28.2099H41.739C41.6027 28.61 40.9686 30.4678 40.9686 30.4678H37.1172L42.5694 16.6649C42.9471 15.688 43.6123 15.416 44.4879 15.416ZM44.2618 20.9253C44.2618 20.9253 43.0986 24.272 42.7963 25.1367H45.8473C45.6963 24.3841 45.0012 20.7812 45.0012 20.7812L44.7447 19.4842C44.6367 19.8182 44.4805 20.2773 44.3751 20.587C44.3037 20.797 44.2556 20.9383 44.2618 20.9253Z" fill="#15195A"/>
<path fill-rule="evenodd" clip-rule="evenodd" d="M5.03698 15.416H10.9426C11.7431 15.4477 12.3926 15.7199 12.604 16.6813L13.8878 23.599C13.8868 23.5961 13.8858 23.5932 13.8848 23.5903C13.8855 23.593 13.8863 23.5957 13.887 23.5984L14.2798 25.68L17.8745 15.416H21.7559L15.9864 30.4521H12.1048L8.83306 17.3726C7.70449 16.6731 6.41653 16.1106 4.97656 15.7201L5.03698 15.416Z" fill="#15195A"/>
</svg>
